<?xml version="1.0" encoding="UTF-8"?>
<svg xmlns="http://www.w3.org/2000/svg" xmlns:xlink="http://www.w3.org/1999/xlink" width="60px" height="60px" viewBox="0 0 60 60" version="1.1">
<g id="surface1">
<path style="fill-rule:nonzero;fill:rgb(94.901961%,94.901961%,94.901961%);fill-opacity:1;stroke-width:1.406513;stroke-linecap:butt;stroke-linejoin:miter;stroke:rgb(0%,0%,0%);stroke-opacity:1;stroke-miterlimit:4;" d="M 7.781413 1.373512 L 56.035273 1.373512 C 59.777589 1.373512 62.811066 4.40277 62.811066 8.142976 L 62.811066 56.611103 C 62.811066 60.351309 59.777589 63.384983 56.035273 63.384983 L 7.781413 63.384983 C 4.039097 63.384983 1.010022 60.351309 1.010022 56.611103 L 1.010022 8.142976 C 1.010022 4.40277 4.039097 1.373512 7.781413 1.373512 Z M 7.781413 1.373512 " transform="matrix(0.887235,0,0,0.884602,1.693717,1.36702)"/>
<path style="fill-rule:nonzero;fill:rgb(100%,100%,100%);fill-opacity:1;stroke-width:1.406513;stroke-linecap:butt;stroke-linejoin:miter;stroke:rgb(0%,0%,0%);stroke-opacity:1;stroke-miterlimit:4;" d="M 10.321785 6.875634 L 53.499304 6.875634 C 54.89937 6.875634 56.035273 8.010501 56.035273 9.414735 L 56.035273 16.400574 C 56.035273 17.800392 54.89937 18.939675 53.499304 18.939675 L 10.321785 18.939675 C 8.917316 18.939675 7.781413 17.800392 7.781413 16.400574 L 7.781413 9.414735 C 7.781413 8.010501 8.917316 6.875634 10.321785 6.875634 Z M 10.321785 6.875634 " transform="matrix(0.887235,0,0,0.884602,1.693717,1.36702)"/>
<path style="fill-rule:nonzero;fill:rgb(100%,0%,0%);fill-opacity:1;stroke-width:1.406513;stroke-linecap:butt;stroke-linejoin:miter;stroke:rgb(0%,0%,0%);stroke-opacity:1;stroke-miterlimit:4;" d="M 8.415405 22.644555 L 16.881844 22.644555 L 16.881844 27.510797 L 8.415405 27.510797 Z M 8.415405 22.644555 " transform="matrix(0.887235,0,0,0.884602,1.693717,1.36702)"/>
<path style="fill-rule:nonzero;fill:rgb(100%,0%,0%);fill-opacity:1;stroke-width:1.406513;stroke-linecap:butt;stroke-linejoin:miter;stroke:rgb(0%,0%,0%);stroke-opacity:1;stroke-miterlimit:4;" d="M 21.112862 22.644555 L 29.579302 22.644555 L 29.579302 27.510797 L 21.112862 27.510797 Z M 21.112862 22.644555 " transform="matrix(0.887235,0,0,0.884602,1.693717,1.36702)"/>
<path style="fill-rule:nonzero;fill:rgb(40%,40%,40%);fill-opacity:1;stroke-width:1.406513;stroke-linecap:butt;stroke-linejoin:miter;stroke:rgb(0%,0%,0%);stroke-opacity:1;stroke-miterlimit:4;" d="M 33.814723 22.644555 L 42.281162 22.644555 L 42.281162 27.510797 L 33.814723 27.510797 Z M 33.814723 22.644555 " transform="matrix(0.887235,0,0,0.884602,1.693717,1.36702)"/>
<path style="fill-rule:nonzero;fill:rgb(40%,40%,40%);fill-opacity:1;stroke-width:1.406513;stroke-linecap:butt;stroke-linejoin:miter;stroke:rgb(0%,0%,0%);stroke-opacity:1;stroke-miterlimit:4;" d="M 46.51218 22.644555 L 54.978619 22.644555 L 54.978619 27.510797 L 46.51218 27.510797 Z M 46.51218 22.644555 " transform="matrix(0.887235,0,0,0.884602,1.693717,1.36702)"/>
<path style="fill-rule:nonzero;fill:rgb(100%,100%,100%);fill-opacity:1;stroke-width:1.406513;stroke-linecap:butt;stroke-linejoin:miter;stroke:rgb(0%,0%,0%);stroke-opacity:1;stroke-miterlimit:4;" d="M 8.415405 32.730306 L 16.881844 32.730306 L 16.881844 37.600964 L 8.415405 37.600964 Z M 8.415405 32.730306 " transform="matrix(0.887235,0,0,0.884602,1.693717,1.36702)"/>
<path style="fill-rule:nonzero;fill:rgb(100%,100%,100%);fill-opacity:1;stroke-width:1.406513;stroke-linecap:butt;stroke-linejoin:miter;stroke:rgb(0%,0%,0%);stroke-opacity:1;stroke-miterlimit:4;" d="M 21.112862 32.730306 L 29.579302 32.730306 L 29.579302 37.600964 L 21.112862 37.600964 Z M 21.112862 32.730306 " transform="matrix(0.887235,0,0,0.884602,1.693717,1.36702)"/>
<path style="fill-rule:nonzero;fill:rgb(100%,100%,100%);fill-opacity:1;stroke-width:1.406513;stroke-linecap:butt;stroke-linejoin:miter;stroke:rgb(0%,0%,0%);stroke-opacity:1;stroke-miterlimit:4;" d="M 33.814723 32.730306 L 42.281162 32.730306 L 42.281162 37.600964 L 33.814723 37.600964 Z M 33.814723 32.730306 " transform="matrix(0.887235,0,0,0.884602,1.693717,1.36702)"/>
<path style="fill-rule:nonzero;fill:rgb(40%,40%,40%);fill-opacity:1;stroke-width:1.406513;stroke-linecap:butt;stroke-linejoin:miter;stroke:rgb(0%,0%,0%);stroke-opacity:1;stroke-miterlimit:4;" d="M 46.51218 32.730306 L 54.978619 32.730306 L 54.978619 37.600964 L 46.51218 37.600964 Z M 46.51218 32.730306 " transform="matrix(0.887235,0,0,0.884602,1.693717,1.36702)"/>
<path style="fill-rule:nonzero;fill:rgb(100%,100%,100%);fill-opacity:1;stroke-width:1.406513;stroke-linecap:butt;stroke-linejoin:miter;stroke:rgb(0%,0%,0%);stroke-opacity:1;stroke-miterlimit:4;" d="M 8.415405 42.820472 L 16.881844 42.820472 L 16.881844 47.686715 L 8.415405 47.686715 Z M 8.415405 42.820472 " transform="matrix(0.887235,0,0,0.884602,1.693717,1.36702)"/>
<path style="fill-rule:nonzero;fill:rgb(100%,100%,100%);fill-opacity:1;stroke-width:1.406513;stroke-linecap:butt;stroke-linejoin:miter;stroke:rgb(0%,0%,0%);stroke-opacity:1;stroke-miterlimit:4;" d="M 21.112862 42.820472 L 29.579302 42.820472 L 29.579302 47.686715 L 21.112862 47.686715 Z M 21.112862 42.820472 " transform="matrix(0.887235,0,0,0.884602,1.693717,1.36702)"/>
<path style="fill-rule:nonzero;fill:rgb(100%,100%,100%);fill-opacity:1;stroke-width:1.406513;stroke-linecap:butt;stroke-linejoin:miter;stroke:rgb(0%,0%,0%);stroke-opacity:1;stroke-miterlimit:4;" d="M 33.814723 42.820472 L 42.281162 42.820472 L 42.281162 47.686715 L 33.814723 47.686715 Z M 33.814723 42.820472 " transform="matrix(0.887235,0,0,0.884602,1.693717,1.36702)"/>
<path style="fill-rule:nonzero;fill:rgb(40%,40%,40%);fill-opacity:1;stroke-width:1.406513;stroke-linecap:butt;stroke-linejoin:miter;stroke:rgb(0%,0%,0%);stroke-opacity:1;stroke-miterlimit:4;" d="M 46.51218 42.820472 L 54.978619 42.820472 L 54.978619 47.686715 L 46.51218 47.686715 Z M 46.51218 42.820472 " transform="matrix(0.887235,0,0,0.884602,1.693717,1.36702)"/>
<path style="fill-rule:nonzero;fill:rgb(100%,100%,100%);fill-opacity:1;stroke-width:1.406513;stroke-linecap:butt;stroke-linejoin:miter;stroke:rgb(0%,0%,0%);stroke-opacity:1;stroke-miterlimit:4;" d="M 8.415405 52.910639 L 16.881844 52.910639 L 16.881844 57.776881 L 8.415405 57.776881 Z M 8.415405 52.910639 " transform="matrix(0.887235,0,0,0.884602,1.693717,1.36702)"/>
<path style="fill-rule:nonzero;fill:rgb(100%,100%,100%);fill-opacity:1;stroke-width:1.406513;stroke-linecap:butt;stroke-linejoin:miter;stroke:rgb(0%,0%,0%);stroke-opacity:1;stroke-miterlimit:4;" d="M 21.112862 52.910639 L 29.579302 52.910639 L 29.579302 57.776881 L 21.112862 57.776881 Z M 21.112862 52.910639 " transform="matrix(0.887235,0,0,0.884602,1.693717,1.36702)"/>
<path style="fill-rule:nonzero;fill:rgb(100%,100%,100%);fill-opacity:1;stroke-width:1.406513;stroke-linecap:butt;stroke-linejoin:miter;stroke:rgb(0%,0%,0%);stroke-opacity:1;stroke-miterlimit:4;" d="M 33.814723 52.910639 L 42.281162 52.910639 L 42.281162 57.776881 L 33.814723 57.776881 Z M 33.814723 52.910639 " transform="matrix(0.887235,0,0,0.884602,1.693717,1.36702)"/>
<path style="fill-rule:nonzero;fill:rgb(40%,40%,40%);fill-opacity:1;stroke-width:1.406513;stroke-linecap:butt;stroke-linejoin:miter;stroke:rgb(0%,0%,0%);stroke-opacity:1;stroke-miterlimit:4;" d="M 46.51218 52.910639 L 54.978619 52.910639 L 54.978619 57.776881 L 46.51218 57.776881 Z M 46.51218 52.910639 " transform="matrix(0.887235,0,0,0.884602,1.693717,1.36702)"/>
<path style="fill-rule:nonzero;fill:rgb(80%,80%,80%);fill-opacity:1;stroke-width:1.406513;stroke-linecap:butt;stroke-linejoin:miter;stroke:rgb(0%,0%,0%);stroke-opacity:1;stroke-miterlimit:4;" d="M 10.955777 9.626694 L 52.649578 9.626694 L 52.649578 16.188615 L 10.955777 16.188615 Z M 10.955777 9.626694 " transform="matrix(0.887235,0,0,0.884602,1.693717,1.36702)"/>
</g>
</svg>
