<?xml version="1.0" encoding="UTF-8"?>
<svg xmlns="http://www.w3.org/2000/svg" xmlns:xlink="http://www.w3.org/1999/xlink" width="60px" height="60px" viewBox="0 0 60 60" version="1.1">
<g id="surface1">
<path style="fill-rule:nonzero;fill:rgb(100%,100%,0%);fill-opacity:1;stroke-width:2;stroke-linecap:round;stroke-linejoin:round;stroke:rgb(0%,0%,0%);stroke-opacity:1;stroke-miterlimit:4;" d="M 492.905898 619.544552 C 491.400039 598.83101 495.934349 569.137391 495.934349 569.137391 L 512.615924 565.095724 L 540.892617 563.074891 C 563.631094 564.085307 570.189948 562.569682 571.695807 567.621766 C 573.218398 572.673849 585.850885 611.057052 585.850885 616.109135 C 585.850885 621.161219 582.30375 633.273589 582.30375 633.273589 " transform="matrix(0.233463,0,0,0.309278,-86.821401,-153.885155)"/>
<path style="fill-rule:nonzero;fill:rgb(100%,100%,0%);fill-opacity:1;stroke-width:2;stroke-linecap:round;stroke-linejoin:round;stroke:rgb(0%,0%,0%);stroke-opacity:1;stroke-miterlimit:4;" d="M 557.557461 589.333094 L 562.108503 614.088302 " transform="matrix(0.233463,0,0,0.309278,-86.821401,-153.885155)"/>
<path style="fill-rule:nonzero;fill:rgb(100%,100%,0%);fill-opacity:1;stroke-width:2;stroke-linecap:round;stroke-linejoin:round;stroke:rgb(0%,0%,0%);stroke-opacity:1;stroke-miterlimit:4;" d="M 505.538385 593.37476 L 507.060977 612.572677 " transform="matrix(0.233463,0,0,0.309278,-86.821401,-153.885155)"/>
<path style="fill-rule:nonzero;fill:rgb(78.431373%,58.823529%,39.215686%);fill-opacity:1;stroke-width:2;stroke-linecap:round;stroke-linejoin:round;stroke:rgb(0%,0%,0%);stroke-opacity:1;stroke-miterlimit:4;" d="M 540.641641 548.171245 L 539.386758 567.621766 C 539.386758 567.621766 529.280768 574.189474 524.729727 574.189474 C 520.178685 574.189474 515.644375 565.600932 515.644375 565.600932 " transform="matrix(0.233463,0,0,0.309278,-86.821401,-153.885155)"/>
<path style="fill-rule:nonzero;fill:rgb(78.431373%,58.823529%,39.215686%);fill-opacity:1;stroke-width:2;stroke-linecap:round;stroke-linejoin:round;stroke:rgb(0%,0%,0%);stroke-opacity:1;stroke-miterlimit:4;" d="M 144.311523 11.50612 C 135.795052 15.674089 129.654492 26.725521 130.139714 41.149219 C 130.808984 61.395443 139.710286 68.038932 143.257422 68.038932 C 146.787826 68.038932 160.223437 67.331641 166.096289 56.861198 C 168.37181 52.819531 168.739909 49.472526 168.739909 49.472526 C 172.287044 50.356641 173.809635 45.557161 173.809635 45.557161 L 174.863737 43.877344 L 175.750521 25.43724 L 167.167122 14.006901 Z M 144.311523 11.50612 " transform="matrix(0.233463,0,0,0.309278,0,0)"/>
<path style="fill-rule:nonzero;fill:rgb(0%,0%,0%);fill-opacity:1;stroke-width:4.51749;stroke-linecap:round;stroke-linejoin:round;stroke:rgb(0%,0%,0%);stroke-opacity:1;stroke-miterlimit:4;" d="M 322.853931 453.903706 C 322.853931 454.878032 321.340115 455.662905 319.507601 455.662905 C 317.63525 455.662905 316.161271 454.878032 316.161271 453.903706 C 316.161271 452.956445 317.63525 452.144508 319.507601 452.144508 C 321.340115 452.144508 322.853931 452.956445 322.853931 453.903706 Z M 322.853931 453.903706 " transform="matrix(0.0980552,0,0,0.144331,3.459689,-55.59814)"/>
<path style="fill:none;stroke-width:1.5;stroke-linecap:round;stroke-linejoin:round;stroke:rgb(0%,0%,0%);stroke-opacity:1;stroke-miterlimit:4;" d="M 512.632656 534.063302 C 509.052057 542.992859 506.910391 541.919292 509.052057 542.992859 C 511.193724 544.066427 514.406224 544.066427 514.406224 544.066427 " transform="matrix(0.233463,0,0,0.309278,-86.821401,-153.885155)"/>
<path style="fill-rule:nonzero;fill:rgb(0%,0%,0%);fill-opacity:1;stroke-width:2;stroke-linecap:round;stroke-linejoin:round;stroke:rgb(0%,0%,0%);stroke-opacity:1;stroke-miterlimit:4;" d="M 503.262865 524.439083 C 506.040339 514.587521 521.450299 514.334917 521.450299 514.334917 L 539.386758 519.639604 C 539.386758 519.639604 536.86026 519.008094 539.386758 519.639604 C 540.139688 524.691688 539.386758 532.762391 539.386758 532.762391 C 539.386758 532.762391 539.637734 532.762391 541.896523 532.257182 C 544.172044 531.751974 546.949518 534.783224 546.949518 538.067078 C 546.949518 541.350932 545.694635 542.992859 545.694635 542.992859 L 549.60987 539.582703 C 549.60987 539.582703 551.751536 522.670854 549.726992 516.608354 C 547.71918 510.545854 535.839622 502.967729 527.758177 502.967729 C 519.676732 502.967729 506.207656 503.64976 503.764818 506.756792 C 496.453034 516.103146 503.262865 524.439083 503.262865 524.439083 Z M 503.262865 524.439083 " transform="matrix(0.233463,0,0,0.309278,-86.821401,-153.885155)"/>
<path style="fill-rule:nonzero;fill:rgb(100%,100%,100%);fill-opacity:1;stroke-width:2;stroke-linecap:round;stroke-linejoin:round;stroke:rgb(0%,0%,0%);stroke-opacity:1;stroke-miterlimit:4;" d="M 507.161367 552.023458 C 515.259544 551.265646 519.542878 550.027885 519.542878 550.027885 C 521.048737 553.31174 515.945547 555.345203 514.356029 555.559917 C 508.801081 556.317729 507.161367 552.023458 507.161367 552.023458 Z M 507.161367 552.023458 " transform="matrix(0.233463,0,0,0.309278,-86.821401,-153.885155)"/>
<path style="fill-rule:nonzero;fill:rgb(100%,100%,100%);fill-opacity:1;stroke-width:2;stroke-linecap:round;stroke-linejoin:round;stroke:rgb(0%,0%,0%);stroke-opacity:1;stroke-miterlimit:4;" d="M 385.236953 656.41213 L 386.558763 673.084005 L 596.023802 672.629318 L 596.994245 655.490125 Z M 385.236953 656.41213 " transform="matrix(0.233463,0,0,0.309278,-86.821401,-153.885155)"/>
<path style="fill-rule:nonzero;fill:rgb(100%,100%,100%);fill-opacity:1;stroke-width:2;stroke-linecap:round;stroke-linejoin:round;stroke:rgb(0%,0%,0%);stroke-opacity:1;stroke-miterlimit:4;" d="M 463.340859 614.656661 L 567.044375 614.176714 L 596.458828 656.3995 L 384.601146 656.348979 L 415.086432 624.407182 " transform="matrix(0.233463,0,0,0.309278,-86.821401,-153.885155)"/>
<path style="fill-rule:nonzero;fill:rgb(100%,100%,100%);fill-opacity:1;stroke-width:2;stroke-linecap:round;stroke-linejoin:round;stroke:rgb(0%,0%,0%);stroke-opacity:1;stroke-miterlimit:4;" d="M 480.82556 620.302365 L 472.258893 649.579187 L 514.389492 648.871896 L 507.964492 619.582443 Z M 480.82556 620.302365 " transform="matrix(0.233463,0,0,0.309278,-86.821401,-153.885155)"/>
<path style="fill-rule:nonzero;fill:rgb(100%,79.607843%,62.352941%);fill-opacity:1;stroke-width:2;stroke-linecap:round;stroke-linejoin:round;stroke:rgb(0%,0%,0%);stroke-opacity:1;stroke-miterlimit:4;" d="M 451.511497 628.221505 C 451.795937 629.269812 451.879596 629.14351 453.418919 630.368641 C 456.229857 631.101193 456.73181 630.34338 458.957135 632.035828 C 460.245482 632.995724 461.065339 635.534396 462.152904 636.481661 C 462.822174 636.898458 465.582917 636.885828 466.503164 635.787 C 467.79151 636.557443 469.079857 636.304839 469.86625 636.115385 C 470.870156 635.875411 471.054206 635.408094 471.606354 634.612391 C 472.560065 634.814474 473.179141 634.776583 473.597435 634.410307 C 474.283437 633.791427 474.802122 633.058875 475.002904 632.490516 C 477.412279 633.95562 479.604141 635.559656 480.223216 635.243901 C 480.992878 634.864995 482.063711 633.917729 480.173021 632.275802 C 478.717357 631.012781 475.555052 624.381922 473.212604 621.956922 C 473.011823 620.062391 469.598542 620.04976 467.440143 619.064604 C 461.048607 616.134396 454.874583 615.932312 454.874583 615.932312 C 454.874583 615.932312 452.649258 619.658224 452.264427 622.563172 C 451.879596 625.46812 451.528229 627.488953 451.528229 627.488953 " transform="matrix(0.233463,0,0,0.309278,-86.821401,-153.885155)"/>
<path style="fill-rule:nonzero;fill:rgb(100%,16.470588%,16.470588%);fill-opacity:1;stroke-width:2;stroke-linecap:round;stroke-linejoin:round;stroke:rgb(0%,0%,0%);stroke-opacity:1;stroke-miterlimit:4;" d="M 462.571198 614.025151 L 461.349779 615.667078 C 461.349779 615.667078 458.488646 614.164083 455.660977 615.427104 C 453.619701 616.336479 450.490859 625.594422 452.230964 630.671766 C 452.415013 631.252755 451.62862 631.644292 451.62862 631.644292 C 451.62862 631.644292 407.97543 621.982182 405.967617 621.982182 C 403.943073 621.982182 399.392031 614.921896 399.392031 610.375021 C 399.392031 605.828146 399.392031 603.302104 399.392031 603.302104 L 426.664818 564.918901 C 426.664818 564.918901 427.936432 563.403276 437.021784 564.666297 L 467.657656 566.611349 C 476.241055 565.600932 479.78819 564.590516 480.792096 569.137391 C 481.796003 573.684266 485.343138 598.932052 487.869635 602.46851 C 490.379401 606.004969 495.348737 613.671505 495.348737 613.671505 " transform="matrix(0.233463,0,0,0.309278,-86.821401,-153.885155)"/>
<path style="fill-rule:nonzero;fill:rgb(100%,100%,100%);fill-opacity:1;stroke-width:2;stroke-linecap:round;stroke-linejoin:round;stroke:rgb(0%,0%,0%);stroke-opacity:1;stroke-miterlimit:4;" d="M 471.18806 613.583094 L 473.212604 584.786219 " transform="matrix(0.233463,0,0,0.309278,-86.821401,-153.885155)"/>
<path style="fill-rule:nonzero;fill:rgb(100%,16.470588%,16.470588%);fill-opacity:1;stroke-width:2;stroke-linecap:round;stroke-linejoin:round;stroke:rgb(0%,0%,0%);stroke-opacity:1;stroke-miterlimit:4;" d="M 429.191315 592.692729 L 418.583372 608.354187 L 462.571198 614.025151 " transform="matrix(0.233463,0,0,0.309278,-86.821401,-153.885155)"/>
<path style="fill-rule:nonzero;fill:rgb(85.882353%,63.529412%,54.117647%);fill-opacity:1;stroke-width:2;stroke-linecap:round;stroke-linejoin:round;stroke:rgb(0%,0%,0%);stroke-opacity:1;stroke-miterlimit:4;" d="M 465.315208 566.560828 C 465.315208 566.560828 459.509284 580.567729 456.982786 581.072937 C 454.456289 581.578146 444.350299 580.315125 437.339687 565.133615 L 441.907461 556.001974 " transform="matrix(0.233463,0,0,0.309278,-86.821401,-153.885155)"/>
<path style="fill-rule:nonzero;fill:rgb(85.882353%,63.529412%,54.117647%);fill-opacity:1;stroke-width:2;stroke-linecap:round;stroke-linejoin:round;stroke:rgb(0%,0%,0%);stroke-opacity:1;stroke-miterlimit:4;" d="M 483.084349 541.881401 C 480.239948 557.997547 468.678294 567.495464 459.107721 568.228016 C 451.511497 567.735437 446.140599 560.687781 442.024583 555.054708 C 438.945938 550.848849 439.615208 551.366688 438.20974 545.822026 C 437.155638 533.166557 428.488581 519.462781 440.133893 514.170724 C 451.91306 508.373458 466.93819 505.228536 476.307982 514.54963 C 484.03806 521.925672 485.46026 531.360437 483.084349 541.881401 Z M 483.084349 541.881401 " transform="matrix(0.233463,0,0,0.309278,-86.821401,-153.885155)"/>
<path style="fill-rule:nonzero;fill:rgb(0%,0%,0%);fill-opacity:1;stroke-width:6.63039;stroke-linecap:round;stroke-linejoin:round;stroke:rgb(0%,0%,0%);stroke-opacity:1;stroke-miterlimit:4;" d="M 315.754975 452.358039 C 315.68674 453.549033 314.886466 454.514589 313.957193 454.4981 C 312.954693 454.500306 312.144211 453.53366 312.13922 452.361362 C 312.134228 451.189064 312.934502 450.223508 313.937001 450.221301 C 314.939501 450.219095 315.716204 451.162647 315.754975 452.358039 Z M 315.754975 452.358039 " transform="matrix(0.0388401,0.0314431,-0.0568116,0.123155,35.900078,-53.849381)"/>
<path style="fill-rule:nonzero;fill:rgb(0%,0%,0%);fill-opacity:1;stroke-width:6.63039;stroke-linecap:round;stroke-linejoin:round;stroke:rgb(0%,0%,0%);stroke-opacity:1;stroke-miterlimit:4;" d="M 315.698364 452.357359 C 315.737135 453.552751 314.903082 454.495214 313.900582 454.49742 C 312.931862 454.52272 312.12138 453.556074 312.189615 452.365081 C 312.150844 451.169689 312.951118 450.204132 313.880391 450.220622 C 314.882891 450.218416 315.693373 451.185061 315.698364 452.357359 Z M 315.698364 452.357359 " transform="matrix(0.0388401,0.0314431,-0.0568116,0.123155,38.367082,-53.023299)"/>
<path style="fill:none;stroke-width:1.5;stroke-linecap:round;stroke-linejoin:round;stroke:rgb(0%,0%,0%);stroke-opacity:1;stroke-miterlimit:4;" d="M 468.276732 548.46174 C 470.234349 549.358484 474.701732 549.67424 474.11612 548.183875 C 473.162409 542.816036 473.346458 540.668901 473.346458 540.668901 " transform="matrix(0.233463,0,0,0.309278,-86.821401,-153.885155)"/>
<path style="fill-rule:nonzero;fill:rgb(100%,100%,100%);fill-opacity:1;stroke-width:2;stroke-linecap:round;stroke-linejoin:round;stroke:rgb(0%,0%,0%);stroke-opacity:1;stroke-miterlimit:4;" d="M 462.085977 555.673589 C 470.669375 556.570333 472.275625 555.850411 472.275625 555.850411 C 472.275625 555.850411 472.32582 555.660958 472.275625 555.850411 C 471.439036 559.033224 466.36931 561.571896 465.131159 561.571896 C 463.876276 561.571896 462.085977 555.673589 462.085977 555.673589 Z M 462.085977 555.673589 " transform="matrix(0.233463,0,0,0.309278,-86.821401,-153.885155)"/>
<path style="fill-rule:nonzero;fill:rgb(41.960784%,18.039216%,0%);fill-opacity:1;stroke-width:2;stroke-linecap:round;stroke-linejoin:round;stroke:rgb(0%,0%,0%);stroke-opacity:1;stroke-miterlimit:4;" d="M 445.605182 534.379057 C 452.783112 533.040255 463.591836 527.912391 469.933177 523.959135 C 477.194766 519.450151 479.754727 518.439734 481.210391 520.637391 C 482.983958 523.302365 483.820547 526.864083 484.238841 532.320333 C 490.245547 528.303927 488.605833 516.444161 480.07263 508.802885 C 471.405573 501.035307 455.727904 497.562 447.077578 502.298328 C 432.253229 510.432182 430.412734 518.704969 418.081419 547.615516 C 423.435586 551.846635 436.536563 557.189214 442.175169 554.53687 C 441.823802 553.084396 443.363125 549.787911 442.309023 546.706141 C 436.452904 548.878536 437.473542 534.341167 438.527643 533.368641 C 441.154531 530.956271 443.496979 534.214865 445.605182 534.379057 Z M 445.605182 534.379057 " transform="matrix(0.233463,0,0,0.309278,-86.821401,-153.885155)"/>
<path style="fill-rule:nonzero;fill:rgb(100%,79.607843%,62.352941%);fill-opacity:1;stroke-width:2;stroke-linecap:round;stroke-linejoin:round;stroke:rgb(0%,0%,0%);stroke-opacity:1;stroke-miterlimit:4;" d="M 869.763471 766.926766 C 869.763471 785.076375 857.298302 799.424292 841.905073 799.424292 C 835.362951 799.424292 831.046154 797.365568 825.993159 794.321688 C 822.496219 792.225073 816.322195 777.346688 816.322195 766.926766 C 816.322195 748.777156 826.528576 734.062964 841.905073 734.062964 C 857.298302 734.062964 869.763471 748.777156 869.763471 766.926766 Z M 869.763471 766.926766 " transform="matrix(0.233463,0,0,0.309278,-148.569339,-214.025876)"/>
<path style="fill-rule:nonzero;fill:rgb(41.960784%,18.039216%,0%);fill-opacity:1;stroke-width:2;stroke-linecap:round;stroke-linejoin:round;stroke:rgb(0%,0%,0%);stroke-opacity:1;stroke-miterlimit:4;" d="M 814.063406 750.84851 C 819.76894 761.205281 827.98424 767.280411 830.845372 770.85476 C 833.438797 774.100724 847.627339 780.491609 847.627339 783.358667 C 847.627339 786.213094 849.769005 789.067521 849.769005 789.067521 L 864.777404 787.993953 C 864.777404 787.993953 861.916271 791.921948 866.199604 784.065958 C 870.482937 776.209969 873.327339 763.188224 871.905138 752.642 C 871.152208 746.882625 868.374734 741.628458 864.409305 736.930021 C 859.590555 731.208536 846.740555 728.429891 837.989839 728.707755 C 828.318875 729.02351 820.120307 733.002026 816.55644 736.563745 C 812.992573 740.138094 814.063406 750.84851 814.063406 750.84851 Z M 814.063406 750.84851 " transform="matrix(0.233463,0,0,0.309278,-148.569339,-214.025876)"/>
<path style="fill-rule:nonzero;fill:rgb(100%,79.607843%,62.352941%);fill-opacity:1;stroke-width:2;stroke-linecap:round;stroke-linejoin:round;stroke:rgb(0%,0%,0%);stroke-opacity:1;stroke-miterlimit:4;" d="M 831.815815 792.250333 C 835.747781 800.826245 836.199539 811.561922 837.989839 811.561922 C 839.763406 811.561922 858.703771 802.278719 861.916271 796.92351 C 865.128771 791.568302 861.548172 788.713875 861.548172 788.713875 " transform="matrix(0.233463,0,0,0.309278,-148.569339,-214.025876)"/>
<path style="fill-rule:nonzero;fill:rgb(0%,0%,50.196078%);fill-opacity:1;stroke-width:2;stroke-linecap:round;stroke-linejoin:round;stroke:rgb(0%,0%,0%);stroke-opacity:1;stroke-miterlimit:4;" d="M 840.482872 800.144214 C 840.482872 800.144214 834.777339 801.925073 826.913406 804.072208 C 819.049474 806.206714 816.205073 810.500984 797.532417 864.330932 L 797.632807 873.348901 C 796.863146 873.096297 808.056701 881.280672 819.266987 882.669995 C 831.548107 884.17299 856.562104 880.143953 856.562104 880.143953 C 856.562104 880.143953 893.338536 872.641609 893.338536 864.78562 C 893.338536 856.92963 884.77187 794.069083 881.191271 791.921948 C 877.627404 789.787443 872.624604 788.347599 859.774604 791.214656 L 853.583849 796.014135 Z M 840.482872 800.144214 " transform="matrix(0.233463,0,0,0.309278,-148.569339,-214.025876)"/>
<path style="fill-rule:nonzero;fill:rgb(47.843137%,29.019608%,11.764706%);fill-opacity:1;stroke-width:2;stroke-linecap:round;stroke-linejoin:round;stroke:rgb(47.843137%,28.235294%,15.686275%);stroke-opacity:1;stroke-miterlimit:4;" d="M 24.261068 73.015234 C 24.261068 91.152214 36.726237 105.51276 52.119466 105.51276 C 58.661589 105.51276 62.978385 103.454036 68.03138 100.410156 C 71.52832 98.313542 77.702344 83.435156 77.702344 73.015234 C 77.702344 54.865625 67.495964 40.151432 52.119466 40.151432 C 36.726237 40.151432 24.261068 54.865625 24.261068 73.015234 Z M 24.261068 73.015234 " transform="matrix(0.233463,0,0,0.309278,0,0)"/>
<path style=" stroke:none;fill-rule:nonzero;fill:rgb(47.843137%,29.019608%,11.764706%);fill-opacity:1;" d="M 14.601562 29.578125 C 13.683594 32.230469 13.578125 35.550781 13.160156 35.550781 C 12.742188 35.550781 8.324219 32.679688 7.574219 31.023438 C 6.824219 29.363281 7.65625 28.480469 7.65625 28.480469 "/>
<path style="fill-rule:nonzero;fill:rgb(0%,49.803922%,24.705882%);fill-opacity:1;stroke-width:2;stroke-linecap:round;stroke-linejoin:round;stroke:rgb(0%,0%,0%);stroke-opacity:1;stroke-miterlimit:4;" d="M 53.85957 108.51875 C 53.85957 108.51875 59.581836 110.299609 67.445768 112.446745 C 75.292969 114.59388 78.154102 118.875521 96.810026 172.718099 L 96.726367 184.817839 C 96.726367 184.817839 65.839518 192.913802 55.833919 193.633724 C 45.845052 194.341016 0 185.398828 0 177.542839 C 0 169.686849 9.587305 102.44362 13.151172 100.309115 C 16.731771 98.161979 21.717839 96.734766 34.58457 99.589193 L 40.758594 104.388672 Z M 53.85957 108.51875 " transform="matrix(0.233463,0,0,0.309278,0,0)"/>
<path style=" stroke:none;fill-rule:nonzero;fill:rgb(16.862745%,15.294118%,15.294118%);fill-opacity:1;" d="M 18.992188 16.703125 C 17.804688 18.945312 16.101562 20.261719 15.511719 21.035156 C 14.972656 21.742188 13.367188 28.429688 13.425781 29.046875 C 13.632812 31.25 11.585938 31.460938 10.332031 31.332031 C 6.496094 30.945312 5.753906 29.019531 5.753906 29.019531 C 5.753906 29.019531 4.691406 24.71875 5.320312 21.480469 C 5.691406 19.582031 5.304688 20.921875 5.597656 18.636719 C 5.753906 17.386719 7.730469 14.699219 8.550781 13.683594 C 9.550781 12.445312 12.214844 11.839844 14.03125 11.902344 C 16.035156 11.96875 17.730469 12.832031 18.472656 13.605469 C 19.210938 14.378906 18.992188 16.703125 18.992188 16.703125 Z M 18.992188 16.703125 "/>
<path style="fill-rule:nonzero;fill:rgb(0%,0%,0%);fill-opacity:1;stroke-width:4.51749;stroke-linecap:round;stroke-linejoin:round;stroke:rgb(0%,0%,0%);stroke-opacity:1;stroke-miterlimit:4;" d="M 322.852189 453.924725 C 322.852189 454.871985 321.338373 455.683923 319.505858 455.683923 C 317.633507 455.683923 316.159528 454.871985 316.159528 453.924725 C 316.159528 452.950399 317.633507 452.165526 319.505858 452.165526 C 321.338373 452.165526 322.852189 452.950399 322.852189 453.924725 Z M 322.852189 453.924725 " transform="matrix(0.0980552,0,0,0.144331,0.323141,-56.003518)"/>
</g>
</svg>
